<svg width="142" height="20" viewBox="0 0 142 20" fill="none" xmlns="http://www.w3.org/2000/svg">
<path d="M127.795 16.3643C123.377 16.3643 120.662 14.0358 120.662 10.2979C120.662 6.53959 123.377 4.23151 127.795 4.23151C132.193 4.23151 134.929 6.53959 134.929 10.2979C134.929 14.0358 132.193 16.3643 127.795 16.3643ZM127.795 13.7907C130.166 13.7907 131.909 12.6264 131.909 10.2979C131.909 7.94896 130.166 6.80512 127.795 6.80512C125.444 6.80512 123.702 7.94896 123.702 10.2979C123.702 12.6264 125.444 13.7907 127.795 13.7907Z" fill="black"/>
<path d="M117.796 3.31234C116.681 3.31234 115.891 2.6383 115.891 1.71915C115.891 0.759147 116.681 0.10553 117.796 0.10553C118.89 0.10553 119.66 0.759147 119.66 1.71915C119.66 2.6383 118.89 3.31234 117.796 3.31234ZM119.397 4.66043V15.9149H116.255V4.66043H119.397Z" fill="black"/>
<path d="M110.479 15.9149H107.338V4.66042H110.479V6.98893C111.391 5.29361 113.316 4.41531 115.464 4.41531V7.13191C113.032 7.13191 111.148 8.09191 110.479 10.0732V15.9149Z" fill="black"/>
<path d="M98.8719 4.23151C102.945 4.23151 105.397 6.13108 105.397 9.62385V13.7702C105.397 14.5873 105.539 15.2613 105.904 15.9149H102.682C102.439 15.5064 102.277 14.9958 102.277 14.5873V14.5668C101.425 15.5064 99.7839 16.3234 97.6357 16.3234C95.2444 16.3234 92.1438 15.3634 92.1438 12.4426C92.1438 9.52172 95.2444 8.58215 97.6357 8.58215C99.7839 8.58215 101.425 9.37874 102.277 10.3387V9.60342C102.277 7.52002 100.919 6.6213 98.2437 6.6213C96.7238 6.6213 95.5079 6.82555 94.1703 7.56087L93.2381 5.47746C94.6972 4.72172 96.8859 4.23151 98.8719 4.23151ZM102.337 12.5856V12.2996C101.506 10.9719 99.8447 10.6451 98.4058 10.6451C97.1088 10.6451 95.2039 10.9515 95.2039 12.4426C95.2039 13.9336 97.1088 14.2604 98.4058 14.2604C99.8447 14.2604 101.506 13.9132 102.337 12.5856Z" fill="black"/>
<path d="M91.6717 13.1166L92.3202 15.2613C91.3677 15.9149 89.9694 16.3438 88.6521 16.3438C86.3013 16.3438 84.4774 15.057 84.4774 12.5243V7.02979H82.4104V4.66043H84.4774V2.04596H87.6186V4.66043H92.2188V7.02979H87.6186V11.9728C87.6186 13.1166 88.4697 13.7089 89.5843 13.7089C90.3544 13.7089 91.0434 13.423 91.6717 13.1166Z" fill="black"/>
<path d="M71.8738 11.0128C72.1575 13.0349 73.6774 13.954 76.2714 13.954C78.1966 13.954 79.4125 13.4434 80.5676 12.5038L82.2497 14.3626C80.6892 15.7515 78.683 16.3643 76.1092 16.3643C71.509 16.3643 68.8542 14.0357 68.8542 10.2979C68.8542 6.53957 71.4887 4.21106 75.8863 4.21106C79.9394 4.21106 82.655 6.29447 82.655 10.2774C82.655 10.6451 82.6347 10.8289 82.5739 11.0128H71.8738ZM75.9066 6.62127C73.8598 6.62127 72.4615 7.39744 72.0156 8.99064L79.6557 8.94979C79.1693 7.33617 77.8926 6.62127 75.9066 6.62127Z" fill="black"/>
<path d="M65.9881 3.31234C64.8735 3.31234 64.0831 2.6383 64.0831 1.71915C64.0831 0.759147 64.8735 0.10553 65.9881 0.10553C67.0824 0.10553 67.8525 0.759147 67.8525 1.71915C67.8525 2.6383 67.0824 3.31234 65.9881 3.31234ZM67.5891 4.66043V15.9149H64.4479V4.66043H67.5891Z" fill="black"/>
<path d="M58.6713 15.9149H55.5302V4.66042H58.6713V6.98893C59.5833 5.29361 61.5085 4.41531 63.6566 4.41531V7.13191C61.2248 7.13191 59.3401 8.09191 58.6713 10.0732V15.9149Z" fill="black"/>
<path d="M48.2061 16.3234C45.9161 16.3234 44.2544 15.3226 43.3424 14.0766V20H40.2013V4.66044H43.3424V6.47832C44.2544 5.23236 45.9161 4.23151 48.2061 4.23151C51.7526 4.23151 54.2249 6.60087 54.2249 10.2775C54.2249 13.9541 51.7526 16.3234 48.2061 16.3234ZM47.4158 6.8664C45.7743 6.8664 44.3354 7.41789 43.3627 8.7047V11.8502C44.3354 13.137 45.7743 13.6885 47.4158 13.6885C49.8476 13.6885 51.2257 12.4834 51.2257 10.2775C51.2257 8.07151 49.8476 6.8664 47.4158 6.8664Z" fill="black"/>
<path d="M31.771 16.3643C27.3531 16.3643 24.6376 14.0358 24.6376 10.2979C24.6376 6.53959 27.3531 4.23151 31.771 4.23151C36.1686 4.23151 38.9044 6.53959 38.9044 10.2979C38.9044 14.0358 36.1686 16.3643 31.771 16.3643ZM31.771 13.7907C34.1421 13.7907 35.8849 12.6264 35.8849 10.2979C35.8849 7.94896 34.1421 6.80512 31.771 6.80512C29.4202 6.80512 27.6774 7.94896 27.6774 10.2979C27.6774 12.6264 29.4202 13.7907 31.771 13.7907Z" fill="black"/>
<path d="M19.9477 15.9149H16.8066V4.66042H19.9477V6.98893C20.8597 5.29361 22.7849 4.41531 24.933 4.41531V7.13191C22.5012 7.13191 20.6165 8.09191 19.9477 10.0732V15.9149Z" fill="black"/>
<path d="M9.70715 1.61703C13.3549 1.61703 15.7868 3.33278 15.7868 6.45789C15.7868 9.62385 13.3549 11.2987 9.70715 11.2987H3.24247V15.9149H0V1.61703H9.70715ZM9.4437 8.60257C11.2676 8.60257 12.4835 8.11236 12.4835 6.47832C12.4835 4.84427 11.2676 4.35406 9.4437 4.35406H3.24247V8.60257H9.4437Z" fill="black"/>
<path d="M140.901 0H142V3.57447H140.972V1.29192L139.558 3.0383H139.507L138.094 1.29192V3.57447H137.096V0H138.226L139.558 1.71575L140.901 0Z" fill="black"/>
<path d="M136.906 0V0.832341H135.432V3.57447H134.398V0.832341H132.934V0H136.906Z" fill="black"/>
</svg>
